<mxfile host="Electron" modified="2023-09-09T11:06:11.044Z" agent="Mozilla/5.0 (Windows NT 10.0; Win64; x64) AppleWebKit/537.36 (KHTML, like Gecko) draw.io/21.6.8 Chrome/114.0.5735.289 Electron/25.5.0 Safari/537.36" etag="AYyEziNbCvEmPFlmY-5l" version="21.6.8" type="device">
  <diagram name="第 1 页" id="xR0-vWq-pjnFvfTxqfAy">
    <mxGraphModel dx="1101" dy="744" grid="1" gridSize="10" guides="1" tooltips="1" connect="1" arrows="1" fold="1" page="1" pageScale="1" pageWidth="827" pageHeight="1169" math="0" shadow="0">
      <root>
        <mxCell id="0" />
        <mxCell id="1" parent="0" />
        <mxCell id="5k6Nri1aWz12oxIihwvE-1" value="&lt;div&gt;题目&lt;/div&gt;&lt;div&gt;1.超市物资管理系统设计&lt;/div&gt;&lt;div&gt;2.学生信息管理系统设计&lt;/div&gt;&lt;div&gt;3.车辆信息管理系统设计&lt;/div&gt;&lt;div&gt;功能组成（1个）：用例、组件、类图&lt;/div&gt;&lt;div&gt;角色组成（1个）角色至少有两个及其以上：用例图、类图、对象图&lt;/div&gt;&lt;div&gt;流程设计（2个流程）：时序图、活动图、状态图&lt;/div&gt;&lt;div&gt;系统部署设计（1个）：部署图、组件图&lt;/div&gt;" style="text;html=1;align=left;verticalAlign=middle;resizable=0;points=[];autosize=1;strokeColor=#788AA3;fillColor=#B2C9AB;labelBackgroundColor=none;fontColor=#46495D;" parent="1" vertex="1">
          <mxGeometry x="447" y="710" width="380" height="130" as="geometry" />
        </mxCell>
        <mxCell id="5k6Nri1aWz12oxIihwvE-2" value="系统管理" style="shape=umlActor;verticalLabelPosition=bottom;verticalAlign=top;html=1;labelBackgroundColor=none;fillColor=#B2C9AB;strokeColor=#788AA3;fontColor=#46495D;" parent="1" vertex="1">
          <mxGeometry x="180" y="265" width="30" height="60" as="geometry" />
        </mxCell>
        <mxCell id="5k6Nri1aWz12oxIihwvE-4" value="物资管理员" style="shape=umlActor;verticalLabelPosition=bottom;verticalAlign=top;html=1;labelBackgroundColor=none;fillColor=#B2C9AB;strokeColor=#788AA3;fontColor=#46495D;" parent="1" vertex="1">
          <mxGeometry x="180" y="428" width="30" height="60" as="geometry" />
        </mxCell>
        <mxCell id="5k6Nri1aWz12oxIihwvE-5" value="售货员" style="shape=umlActor;verticalLabelPosition=bottom;verticalAlign=top;html=1;labelBackgroundColor=none;fillColor=#B2C9AB;strokeColor=#788AA3;fontColor=#46495D;" parent="1" vertex="1">
          <mxGeometry x="178" y="573" width="30" height="60" as="geometry" />
        </mxCell>
        <mxCell id="5k6Nri1aWz12oxIihwvE-18" style="rounded=0;orthogonalLoop=1;jettySize=auto;html=1;entryX=0;entryY=0.5;entryDx=0;entryDy=0;dashed=1;endArrow=open;endFill=0;labelBackgroundColor=none;strokeColor=#788AA3;fontColor=default;" parent="1" source="5k6Nri1aWz12oxIihwvE-6" target="5k6Nri1aWz12oxIihwvE-17" edge="1">
          <mxGeometry relative="1" as="geometry" />
        </mxCell>
        <mxCell id="5k6Nri1aWz12oxIihwvE-23" style="edgeStyle=none;shape=connector;rounded=0;orthogonalLoop=1;jettySize=auto;html=1;entryX=1;entryY=0.3333333333333333;entryDx=0;entryDy=0;entryPerimeter=0;labelBackgroundColor=none;strokeColor=#788AA3;fontFamily=Helvetica;fontSize=11;fontColor=default;endArrow=classic;" parent="1" source="5k6Nri1aWz12oxIihwvE-6" target="5k6Nri1aWz12oxIihwvE-2" edge="1">
          <mxGeometry relative="1" as="geometry" />
        </mxCell>
        <mxCell id="5k6Nri1aWz12oxIihwvE-30" style="edgeStyle=none;shape=connector;rounded=0;orthogonalLoop=1;jettySize=auto;html=1;dashed=1;labelBackgroundColor=none;strokeColor=#788AA3;fontFamily=Helvetica;fontSize=11;fontColor=default;endArrow=open;endFill=0;" parent="1" source="5k6Nri1aWz12oxIihwvE-6" target="5k6Nri1aWz12oxIihwvE-26" edge="1">
          <mxGeometry relative="1" as="geometry" />
        </mxCell>
        <mxCell id="5k6Nri1aWz12oxIihwvE-6" value="用户管理" style="ellipse;whiteSpace=wrap;html=1;labelBackgroundColor=none;fillColor=#B2C9AB;strokeColor=#788AA3;fontColor=#46495D;" parent="1" vertex="1">
          <mxGeometry x="330" y="250" width="140" height="70" as="geometry" />
        </mxCell>
        <mxCell id="5k6Nri1aWz12oxIihwvE-10" value="include" style="rounded=0;orthogonalLoop=1;jettySize=auto;html=1;entryX=0.5;entryY=0;entryDx=0;entryDy=0;dashed=1;endArrow=open;endFill=0;labelBackgroundColor=none;strokeColor=#788AA3;fontColor=default;" parent="1" source="5k6Nri1aWz12oxIihwvE-8" target="5k6Nri1aWz12oxIihwvE-9" edge="1">
          <mxGeometry relative="1" as="geometry" />
        </mxCell>
        <mxCell id="5k6Nri1aWz12oxIihwvE-21" style="rounded=0;orthogonalLoop=1;jettySize=auto;html=1;entryX=1;entryY=0.3333333333333333;entryDx=0;entryDy=0;entryPerimeter=0;exitX=0;exitY=0.5;exitDx=0;exitDy=0;labelBackgroundColor=none;strokeColor=#788AA3;fontColor=default;" parent="1" source="5k6Nri1aWz12oxIihwvE-9" target="5k6Nri1aWz12oxIihwvE-5" edge="1">
          <mxGeometry relative="1" as="geometry" />
        </mxCell>
        <mxCell id="5k6Nri1aWz12oxIihwvE-22" style="rounded=0;orthogonalLoop=1;jettySize=auto;html=1;entryX=1;entryY=0.3333333333333333;entryDx=0;entryDy=0;entryPerimeter=0;labelBackgroundColor=none;strokeColor=#788AA3;fontColor=default;" parent="1" source="5k6Nri1aWz12oxIihwvE-8" target="5k6Nri1aWz12oxIihwvE-4" edge="1">
          <mxGeometry relative="1" as="geometry" />
        </mxCell>
        <mxCell id="5k6Nri1aWz12oxIihwvE-34" style="edgeStyle=none;shape=connector;rounded=0;orthogonalLoop=1;jettySize=auto;html=1;entryX=0;entryY=0.5;entryDx=0;entryDy=0;dashed=1;labelBackgroundColor=none;strokeColor=#788AA3;fontFamily=Helvetica;fontSize=11;fontColor=default;endArrow=open;endFill=0;" parent="1" source="5k6Nri1aWz12oxIihwvE-8" target="5k6Nri1aWz12oxIihwvE-32" edge="1">
          <mxGeometry relative="1" as="geometry" />
        </mxCell>
        <mxCell id="5k6Nri1aWz12oxIihwvE-35" style="edgeStyle=none;shape=connector;rounded=0;orthogonalLoop=1;jettySize=auto;html=1;dashed=1;labelBackgroundColor=none;strokeColor=#788AA3;fontFamily=Helvetica;fontSize=11;fontColor=default;endArrow=open;endFill=0;" parent="1" source="5k6Nri1aWz12oxIihwvE-8" target="5k6Nri1aWz12oxIihwvE-33" edge="1">
          <mxGeometry relative="1" as="geometry" />
        </mxCell>
        <mxCell id="5k6Nri1aWz12oxIihwvE-8" value="物资管理" style="ellipse;whiteSpace=wrap;html=1;labelBackgroundColor=none;fillColor=#B2C9AB;strokeColor=#788AA3;fontColor=#46495D;" parent="1" vertex="1">
          <mxGeometry x="340" y="470" width="140" height="70" as="geometry" />
        </mxCell>
        <mxCell id="5k6Nri1aWz12oxIihwvE-9" value="物资查询" style="ellipse;whiteSpace=wrap;html=1;labelBackgroundColor=none;fillColor=#B2C9AB;strokeColor=#788AA3;fontColor=#46495D;" parent="1" vertex="1">
          <mxGeometry x="350" y="600" width="140" height="70" as="geometry" />
        </mxCell>
        <mxCell id="5k6Nri1aWz12oxIihwvE-24" style="edgeStyle=none;shape=connector;rounded=0;orthogonalLoop=1;jettySize=auto;html=1;entryX=1;entryY=0.3333333333333333;entryDx=0;entryDy=0;entryPerimeter=0;labelBackgroundColor=none;strokeColor=#788AA3;fontFamily=Helvetica;fontSize=11;fontColor=default;endArrow=classic;" parent="1" source="5k6Nri1aWz12oxIihwvE-11" target="5k6Nri1aWz12oxIihwvE-4" edge="1">
          <mxGeometry relative="1" as="geometry" />
        </mxCell>
        <mxCell id="5k6Nri1aWz12oxIihwvE-25" style="edgeStyle=none;shape=connector;rounded=0;orthogonalLoop=1;jettySize=auto;html=1;entryX=1;entryY=0.3333333333333333;entryDx=0;entryDy=0;entryPerimeter=0;labelBackgroundColor=none;strokeColor=#788AA3;fontFamily=Helvetica;fontSize=11;fontColor=default;endArrow=classic;" parent="1" source="5k6Nri1aWz12oxIihwvE-11" target="5k6Nri1aWz12oxIihwvE-5" edge="1">
          <mxGeometry relative="1" as="geometry" />
        </mxCell>
        <mxCell id="5k6Nri1aWz12oxIihwvE-31" style="edgeStyle=none;shape=connector;rounded=0;orthogonalLoop=1;jettySize=auto;html=1;entryX=0;entryY=0.5;entryDx=0;entryDy=0;dashed=1;labelBackgroundColor=none;strokeColor=#788AA3;fontFamily=Helvetica;fontSize=11;fontColor=default;endArrow=open;endFill=0;" parent="1" source="5k6Nri1aWz12oxIihwvE-11" target="5k6Nri1aWz12oxIihwvE-27" edge="1">
          <mxGeometry relative="1" as="geometry" />
        </mxCell>
        <mxCell id="5k6Nri1aWz12oxIihwvE-42" style="rounded=0;orthogonalLoop=1;jettySize=auto;html=1;entryX=1;entryY=0.3333333333333333;entryDx=0;entryDy=0;entryPerimeter=0;strokeColor=#788AA3;fontColor=#46495D;fillColor=#B2C9AB;" parent="1" source="5k6Nri1aWz12oxIihwvE-11" target="5k6Nri1aWz12oxIihwvE-2" edge="1">
          <mxGeometry relative="1" as="geometry" />
        </mxCell>
        <mxCell id="5k6Nri1aWz12oxIihwvE-11" value="登录" style="ellipse;whiteSpace=wrap;html=1;labelBackgroundColor=none;fillColor=#B2C9AB;strokeColor=#788AA3;fontColor=#46495D;" parent="1" vertex="1">
          <mxGeometry x="340" y="360" width="140" height="70" as="geometry" />
        </mxCell>
        <mxCell id="5k6Nri1aWz12oxIihwvE-17" value="用户创建" style="ellipse;whiteSpace=wrap;html=1;labelBackgroundColor=none;fillColor=#B2C9AB;strokeColor=#788AA3;fontColor=#46495D;" parent="1" vertex="1">
          <mxGeometry x="530" y="180" width="140" height="70" as="geometry" />
        </mxCell>
        <mxCell id="5k6Nri1aWz12oxIihwvE-26" value="用户删除" style="ellipse;whiteSpace=wrap;html=1;labelBackgroundColor=none;fillColor=#B2C9AB;strokeColor=#788AA3;fontColor=#46495D;" parent="1" vertex="1">
          <mxGeometry x="540" y="270" width="140" height="70" as="geometry" />
        </mxCell>
        <mxCell id="5k6Nri1aWz12oxIihwvE-27" value="退出" style="ellipse;whiteSpace=wrap;html=1;fontFamily=Helvetica;fontSize=11;fontColor=#46495D;labelBackgroundColor=none;fillColor=#B2C9AB;strokeColor=#788AA3;" parent="1" vertex="1">
          <mxGeometry x="550" y="360" width="140" height="70" as="geometry" />
        </mxCell>
        <mxCell id="5k6Nri1aWz12oxIihwvE-32" value="创建物资" style="ellipse;whiteSpace=wrap;html=1;fontFamily=Helvetica;fontSize=11;fontColor=#46495D;labelBackgroundColor=none;fillColor=#B2C9AB;strokeColor=#788AA3;" parent="1" vertex="1">
          <mxGeometry x="540" y="475" width="140" height="70" as="geometry" />
        </mxCell>
        <mxCell id="5k6Nri1aWz12oxIihwvE-33" value="删除物资" style="ellipse;whiteSpace=wrap;html=1;fontFamily=Helvetica;fontSize=11;fontColor=#46495D;labelBackgroundColor=none;fillColor=#B2C9AB;strokeColor=#788AA3;" parent="1" vertex="1">
          <mxGeometry x="550" y="580" width="140" height="70" as="geometry" />
        </mxCell>
        <mxCell id="5k6Nri1aWz12oxIihwvE-36" value="超市物资管理系统" style="shape=umlFrame;whiteSpace=wrap;html=1;pointerEvents=0;fontFamily=Helvetica;fontSize=11;fontColor=#46495D;labelBackgroundColor=none;fillColor=#B2C9AB;strokeColor=#788AA3;" parent="1" vertex="1">
          <mxGeometry x="240" y="170" width="480" height="500" as="geometry" />
        </mxCell>
        <mxCell id="5k6Nri1aWz12oxIihwvE-37" value="User" style="swimlane;fontStyle=1;align=center;verticalAlign=top;childLayout=stackLayout;horizontal=1;startSize=26;horizontalStack=0;resizeParent=1;resizeParentMax=0;resizeLast=0;collapsible=1;marginBottom=0;whiteSpace=wrap;html=1;strokeColor=#788AA3;fontColor=#46495D;fillColor=#B2C9AB;" parent="1" vertex="1">
          <mxGeometry x="254" y="960" width="160" height="200" as="geometry">
            <mxRectangle x="254" y="960" width="70" height="30" as="alternateBounds" />
          </mxGeometry>
        </mxCell>
        <mxCell id="5k6Nri1aWz12oxIihwvE-38" value="+ UserName: string&lt;br&gt;+ PhoneNumber: int&lt;br&gt;+ Password: string&lt;br&gt;+ Address: string&lt;br&gt;+ Department: string&lt;br&gt;+ Role: Role" style="text;strokeColor=none;fillColor=none;align=left;verticalAlign=top;spacingLeft=4;spacingRight=4;overflow=hidden;rotatable=0;points=[[0,0.5],[1,0.5]];portConstraint=eastwest;whiteSpace=wrap;html=1;fontColor=#46495D;" parent="5k6Nri1aWz12oxIihwvE-37" vertex="1">
          <mxGeometry y="26" width="160" height="94" as="geometry" />
        </mxCell>
        <mxCell id="5k6Nri1aWz12oxIihwvE-39" value="" style="line;strokeWidth=1;fillColor=none;align=left;verticalAlign=middle;spacingTop=-1;spacingLeft=3;spacingRight=3;rotatable=0;labelPosition=right;points=[];portConstraint=eastwest;strokeColor=inherit;fontColor=#46495D;" parent="5k6Nri1aWz12oxIihwvE-37" vertex="1">
          <mxGeometry y="120" width="160" height="8" as="geometry" />
        </mxCell>
        <mxCell id="5k6Nri1aWz12oxIihwvE-40" value="+ Login(): error&lt;br&gt;+ Exit(): error&lt;br&gt;+ Create(): (User,error)&lt;br&gt;+ Delete(): error" style="text;strokeColor=none;fillColor=none;align=left;verticalAlign=top;spacingLeft=4;spacingRight=4;overflow=hidden;rotatable=0;points=[[0,0.5],[1,0.5]];portConstraint=eastwest;whiteSpace=wrap;html=1;fontColor=#46495D;" parent="5k6Nri1aWz12oxIihwvE-37" vertex="1">
          <mxGeometry y="128" width="160" height="72" as="geometry" />
        </mxCell>
        <mxCell id="5k6Nri1aWz12oxIihwvE-43" value="Role" style="swimlane;fontStyle=1;align=center;verticalAlign=top;childLayout=stackLayout;horizontal=1;startSize=26;horizontalStack=0;resizeParent=1;resizeParentMax=0;resizeLast=0;collapsible=1;marginBottom=0;whiteSpace=wrap;html=1;strokeColor=#788AA3;fontColor=#46495D;fillColor=#B2C9AB;" parent="1" vertex="1">
          <mxGeometry x="460" y="960" width="160" height="60" as="geometry">
            <mxRectangle x="254" y="960" width="70" height="30" as="alternateBounds" />
          </mxGeometry>
        </mxCell>
        <mxCell id="5k6Nri1aWz12oxIihwvE-44" value="+ Name: string" style="text;strokeColor=none;fillColor=none;align=left;verticalAlign=top;spacingLeft=4;spacingRight=4;overflow=hidden;rotatable=0;points=[[0,0.5],[1,0.5]];portConstraint=eastwest;whiteSpace=wrap;html=1;fontColor=#46495D;" parent="5k6Nri1aWz12oxIihwvE-43" vertex="1">
          <mxGeometry y="26" width="160" height="34" as="geometry" />
        </mxCell>
        <mxCell id="5k6Nri1aWz12oxIihwvE-48" style="rounded=0;orthogonalLoop=1;jettySize=auto;html=1;entryX=0;entryY=0.3333333333333333;entryDx=0;entryDy=0;entryPerimeter=0;strokeColor=#788AA3;fontColor=#46495D;fillColor=#B2C9AB;" parent="1" source="5k6Nri1aWz12oxIihwvE-47" target="5k6Nri1aWz12oxIihwvE-4" edge="1">
          <mxGeometry relative="1" as="geometry" />
        </mxCell>
        <mxCell id="5k6Nri1aWz12oxIihwvE-49" style="rounded=0;orthogonalLoop=1;jettySize=auto;html=1;entryX=0;entryY=0.3333333333333333;entryDx=0;entryDy=0;entryPerimeter=0;strokeColor=#788AA3;fontColor=#46495D;fillColor=#B2C9AB;" parent="1" source="5k6Nri1aWz12oxIihwvE-47" target="5k6Nri1aWz12oxIihwvE-2" edge="1">
          <mxGeometry relative="1" as="geometry" />
        </mxCell>
        <mxCell id="5k6Nri1aWz12oxIihwvE-50" style="rounded=0;orthogonalLoop=1;jettySize=auto;html=1;exitX=1;exitY=1;exitDx=0;exitDy=0;exitPerimeter=0;entryX=0;entryY=0.3333333333333333;entryDx=0;entryDy=0;entryPerimeter=0;strokeColor=#788AA3;fontColor=#46495D;fillColor=#B2C9AB;" parent="1" source="5k6Nri1aWz12oxIihwvE-47" target="5k6Nri1aWz12oxIihwvE-5" edge="1">
          <mxGeometry relative="1" as="geometry" />
        </mxCell>
        <mxCell id="5k6Nri1aWz12oxIihwvE-47" value="用户" style="shape=umlActor;verticalLabelPosition=bottom;verticalAlign=top;html=1;labelBackgroundColor=none;fillColor=#B2C9AB;strokeColor=#788AA3;fontColor=#46495D;" parent="1" vertex="1">
          <mxGeometry x="40" y="428" width="30" height="60" as="geometry" />
        </mxCell>
        <mxCell id="5k6Nri1aWz12oxIihwvE-51" style="rounded=0;orthogonalLoop=1;jettySize=auto;html=1;entryX=0;entryY=0.5;entryDx=0;entryDy=0;strokeColor=#788AA3;fontColor=#46495D;fillColor=#B2C9AB;exitX=1;exitY=0.5;exitDx=0;exitDy=0;" parent="1" source="5k6Nri1aWz12oxIihwvE-38" target="5k6Nri1aWz12oxIihwvE-44" edge="1">
          <mxGeometry relative="1" as="geometry" />
        </mxCell>
        <mxCell id="5k6Nri1aWz12oxIihwvE-52" value="Goods" style="swimlane;fontStyle=1;align=center;verticalAlign=top;childLayout=stackLayout;horizontal=1;startSize=26;horizontalStack=0;resizeParent=1;resizeParentMax=0;resizeLast=0;collapsible=1;marginBottom=0;whiteSpace=wrap;html=1;strokeColor=#788AA3;fontColor=#46495D;fillColor=#B2C9AB;" parent="1" vertex="1">
          <mxGeometry x="254" y="1190" width="160" height="180" as="geometry">
            <mxRectangle x="254" y="960" width="70" height="30" as="alternateBounds" />
          </mxGeometry>
        </mxCell>
        <mxCell id="5k6Nri1aWz12oxIihwvE-53" value="+ Name: string&lt;br&gt;+ Number: int&lt;br&gt;+ Address: string&lt;br&gt;+ Price: float" style="text;strokeColor=none;fillColor=none;align=left;verticalAlign=top;spacingLeft=4;spacingRight=4;overflow=hidden;rotatable=0;points=[[0,0.5],[1,0.5]];portConstraint=eastwest;whiteSpace=wrap;html=1;fontColor=#46495D;" parent="5k6Nri1aWz12oxIihwvE-52" vertex="1">
          <mxGeometry y="26" width="160" height="64" as="geometry" />
        </mxCell>
        <mxCell id="5k6Nri1aWz12oxIihwvE-54" value="" style="line;strokeWidth=1;fillColor=none;align=left;verticalAlign=middle;spacingTop=-1;spacingLeft=3;spacingRight=3;rotatable=0;labelPosition=right;points=[];portConstraint=eastwest;strokeColor=inherit;fontColor=#46495D;" parent="5k6Nri1aWz12oxIihwvE-52" vertex="1">
          <mxGeometry y="90" width="160" height="8" as="geometry" />
        </mxCell>
        <mxCell id="5k6Nri1aWz12oxIihwvE-55" value="+ Add(): error&lt;br&gt;+ Reduce(): error&lt;br&gt;+ Create(): error&lt;br&gt;+ Delete(): error&lt;br&gt;+ Get(): (Goods,error)" style="text;strokeColor=none;fillColor=none;align=left;verticalAlign=top;spacingLeft=4;spacingRight=4;overflow=hidden;rotatable=0;points=[[0,0.5],[1,0.5]];portConstraint=eastwest;whiteSpace=wrap;html=1;fontColor=#46495D;" parent="5k6Nri1aWz12oxIihwvE-52" vertex="1">
          <mxGeometry y="98" width="160" height="82" as="geometry" />
        </mxCell>
        <mxCell id="5k6Nri1aWz12oxIihwvE-59" value="" style="group" parent="1" vertex="1" connectable="0">
          <mxGeometry x="237" y="1480" width="60" height="400" as="geometry" />
        </mxCell>
        <mxCell id="5k6Nri1aWz12oxIihwvE-57" value="" style="shape=umlLifeline;perimeter=lifelinePerimeter;whiteSpace=wrap;html=1;container=1;dropTarget=0;collapsible=0;recursiveResize=0;outlineConnect=0;portConstraint=eastwest;newEdgeStyle={&quot;edgeStyle&quot;:&quot;elbowEdgeStyle&quot;,&quot;elbow&quot;:&quot;vertical&quot;,&quot;curved&quot;:0,&quot;rounded&quot;:0};participant=umlActor;strokeColor=#788AA3;fontColor=#46495D;fillColor=#B2C9AB;size=40;align=center;" parent="5k6Nri1aWz12oxIihwvE-59" vertex="1">
          <mxGeometry x="17" y="27.906976744186046" width="26" height="372.09302325581393" as="geometry" />
        </mxCell>
        <mxCell id="5k6Nri1aWz12oxIihwvE-58" value="售货员" style="text;html=1;align=center;verticalAlign=middle;resizable=0;points=[];autosize=1;strokeColor=none;fillColor=none;fontColor=#46495D;" parent="5k6Nri1aWz12oxIihwvE-59" vertex="1">
          <mxGeometry width="60" height="30" as="geometry" />
        </mxCell>
        <mxCell id="5k6Nri1aWz12oxIihwvE-69" value="Get Goods" style="html=1;verticalAlign=bottom;startArrow=oval;startFill=1;endArrow=block;startSize=8;edgeStyle=elbowEdgeStyle;elbow=vertical;curved=0;rounded=0;strokeColor=#788AA3;fontColor=#46495D;fillColor=#B2C9AB;" parent="5k6Nri1aWz12oxIihwvE-59" target="5k6Nri1aWz12oxIihwvE-64" edge="1">
          <mxGeometry width="60" relative="1" as="geometry">
            <mxPoint x="33" y="195.34883720930233" as="sourcePoint" />
            <mxPoint x="93" y="195.34883720930233" as="targetPoint" />
          </mxGeometry>
        </mxCell>
        <mxCell id="5k6Nri1aWz12oxIihwvE-60" value="User" style="shape=umlLifeline;perimeter=lifelinePerimeter;whiteSpace=wrap;html=1;container=1;dropTarget=0;collapsible=0;recursiveResize=0;outlineConnect=0;portConstraint=eastwest;newEdgeStyle={&quot;edgeStyle&quot;:&quot;elbowEdgeStyle&quot;,&quot;elbow&quot;:&quot;vertical&quot;,&quot;curved&quot;:0,&quot;rounded&quot;:0};strokeColor=#788AA3;fontColor=#46495D;fillColor=#B2C9AB;" parent="1" vertex="1">
          <mxGeometry x="420" y="1470" width="100" height="410" as="geometry" />
        </mxCell>
        <mxCell id="5k6Nri1aWz12oxIihwvE-62" value="" style="html=1;points=[];perimeter=orthogonalPerimeter;outlineConnect=0;targetShapes=umlLifeline;portConstraint=eastwest;newEdgeStyle={&quot;edgeStyle&quot;:&quot;elbowEdgeStyle&quot;,&quot;elbow&quot;:&quot;vertical&quot;,&quot;curved&quot;:0,&quot;rounded&quot;:0};strokeColor=#788AA3;fontColor=#46495D;fillColor=#B2C9AB;" parent="5k6Nri1aWz12oxIihwvE-60" vertex="1">
          <mxGeometry x="40" y="90" width="10" height="80" as="geometry" />
        </mxCell>
        <mxCell id="5k6Nri1aWz12oxIihwvE-66" value="" style="html=1;points=[];perimeter=orthogonalPerimeter;outlineConnect=0;targetShapes=umlLifeline;portConstraint=eastwest;newEdgeStyle={&quot;edgeStyle&quot;:&quot;elbowEdgeStyle&quot;,&quot;elbow&quot;:&quot;vertical&quot;,&quot;curved&quot;:0,&quot;rounded&quot;:0};strokeColor=#788AA3;fontColor=#46495D;fillColor=#B2C9AB;" parent="5k6Nri1aWz12oxIihwvE-60" vertex="1">
          <mxGeometry x="50" y="110" width="10" height="40" as="geometry" />
        </mxCell>
        <mxCell id="5k6Nri1aWz12oxIihwvE-67" value="Login()" style="html=1;align=left;spacingLeft=2;endArrow=block;rounded=0;edgeStyle=orthogonalEdgeStyle;curved=0;rounded=0;strokeColor=#788AA3;fontColor=#46495D;fillColor=#B2C9AB;exitX=0.9;exitY=0.005;exitDx=0;exitDy=0;exitPerimeter=0;" parent="5k6Nri1aWz12oxIihwvE-60" source="5k6Nri1aWz12oxIihwvE-62" target="5k6Nri1aWz12oxIihwvE-66" edge="1">
          <mxGeometry x="0.0066" relative="1" as="geometry">
            <mxPoint x="55" y="90" as="sourcePoint" />
            <Array as="points">
              <mxPoint x="85" y="90" />
              <mxPoint x="85" y="120" />
            </Array>
            <mxPoint as="offset" />
          </mxGeometry>
        </mxCell>
        <mxCell id="5k6Nri1aWz12oxIihwvE-73" value="" style="html=1;points=[];perimeter=orthogonalPerimeter;outlineConnect=0;targetShapes=umlLifeline;portConstraint=eastwest;newEdgeStyle={&quot;edgeStyle&quot;:&quot;elbowEdgeStyle&quot;,&quot;elbow&quot;:&quot;vertical&quot;,&quot;curved&quot;:0,&quot;rounded&quot;:0};strokeColor=#788AA3;fontColor=#46495D;fillColor=#B2C9AB;" parent="5k6Nri1aWz12oxIihwvE-60" vertex="1">
          <mxGeometry x="45" y="320" width="10" height="80" as="geometry" />
        </mxCell>
        <mxCell id="5k6Nri1aWz12oxIihwvE-76" value="" style="html=1;points=[];perimeter=orthogonalPerimeter;outlineConnect=0;targetShapes=umlLifeline;portConstraint=eastwest;newEdgeStyle={&quot;edgeStyle&quot;:&quot;elbowEdgeStyle&quot;,&quot;elbow&quot;:&quot;vertical&quot;,&quot;curved&quot;:0,&quot;rounded&quot;:0};strokeColor=#788AA3;fontColor=#46495D;fillColor=#B2C9AB;" parent="5k6Nri1aWz12oxIihwvE-60" vertex="1">
          <mxGeometry x="50" y="340" width="10" height="40" as="geometry" />
        </mxCell>
        <mxCell id="5k6Nri1aWz12oxIihwvE-77" value="Exit()" style="html=1;align=left;spacingLeft=2;endArrow=block;rounded=0;edgeStyle=orthogonalEdgeStyle;curved=0;rounded=0;strokeColor=#788AA3;fontColor=#46495D;fillColor=#B2C9AB;" parent="5k6Nri1aWz12oxIihwvE-60" target="5k6Nri1aWz12oxIihwvE-76" edge="1">
          <mxGeometry relative="1" as="geometry">
            <mxPoint x="55" y="320" as="sourcePoint" />
            <Array as="points">
              <mxPoint x="85" y="350" />
            </Array>
          </mxGeometry>
        </mxCell>
        <mxCell id="5k6Nri1aWz12oxIihwvE-61" value="Goods" style="shape=umlLifeline;perimeter=lifelinePerimeter;whiteSpace=wrap;html=1;container=1;dropTarget=0;collapsible=0;recursiveResize=0;outlineConnect=0;portConstraint=eastwest;newEdgeStyle={&quot;edgeStyle&quot;:&quot;elbowEdgeStyle&quot;,&quot;elbow&quot;:&quot;vertical&quot;,&quot;curved&quot;:0,&quot;rounded&quot;:0};strokeColor=#788AA3;fontColor=#46495D;fillColor=#B2C9AB;" parent="1" vertex="1">
          <mxGeometry x="630" y="1470" width="100" height="410" as="geometry" />
        </mxCell>
        <mxCell id="5k6Nri1aWz12oxIihwvE-64" value="" style="html=1;points=[];perimeter=orthogonalPerimeter;outlineConnect=0;targetShapes=umlLifeline;portConstraint=eastwest;newEdgeStyle={&quot;edgeStyle&quot;:&quot;elbowEdgeStyle&quot;,&quot;elbow&quot;:&quot;vertical&quot;,&quot;curved&quot;:0,&quot;rounded&quot;:0};strokeColor=#788AA3;fontColor=#46495D;fillColor=#B2C9AB;" parent="5k6Nri1aWz12oxIihwvE-61" vertex="1">
          <mxGeometry x="40" y="216" width="10" height="80" as="geometry" />
        </mxCell>
        <mxCell id="5k6Nri1aWz12oxIihwvE-70" value="" style="html=1;points=[];perimeter=orthogonalPerimeter;outlineConnect=0;targetShapes=umlLifeline;portConstraint=eastwest;newEdgeStyle={&quot;edgeStyle&quot;:&quot;elbowEdgeStyle&quot;,&quot;elbow&quot;:&quot;vertical&quot;,&quot;curved&quot;:0,&quot;rounded&quot;:0};strokeColor=#788AA3;fontColor=#46495D;fillColor=#B2C9AB;" parent="5k6Nri1aWz12oxIihwvE-61" vertex="1">
          <mxGeometry x="45" y="236" width="10" height="40" as="geometry" />
        </mxCell>
        <mxCell id="5k6Nri1aWz12oxIihwvE-71" value="Get()" style="html=1;align=left;spacingLeft=2;endArrow=block;rounded=0;edgeStyle=orthogonalEdgeStyle;curved=0;rounded=0;strokeColor=#788AA3;fontColor=#46495D;fillColor=#B2C9AB;" parent="5k6Nri1aWz12oxIihwvE-61" target="5k6Nri1aWz12oxIihwvE-70" edge="1">
          <mxGeometry x="0.0069" relative="1" as="geometry">
            <mxPoint x="50" y="216" as="sourcePoint" />
            <Array as="points">
              <mxPoint x="80" y="246" />
            </Array>
            <mxPoint as="offset" />
          </mxGeometry>
        </mxCell>
        <mxCell id="5k6Nri1aWz12oxIihwvE-63" value="Login request" style="html=1;verticalAlign=bottom;startArrow=oval;endArrow=block;startSize=8;edgeStyle=elbowEdgeStyle;elbow=vertical;curved=0;rounded=0;strokeColor=#788AA3;fontColor=#46495D;fillColor=#B2C9AB;" parent="1" source="5k6Nri1aWz12oxIihwvE-57" target="5k6Nri1aWz12oxIihwvE-62" edge="1">
          <mxGeometry relative="1" as="geometry">
            <mxPoint x="400" y="1560" as="sourcePoint" />
            <Array as="points">
              <mxPoint x="370" y="1560" />
            </Array>
          </mxGeometry>
        </mxCell>
        <mxCell id="5k6Nri1aWz12oxIihwvE-68" style="edgeStyle=elbowEdgeStyle;rounded=0;orthogonalLoop=1;jettySize=auto;html=1;elbow=vertical;curved=0;strokeColor=#788AA3;fontColor=#46495D;fillColor=#B2C9AB;dashed=1;endArrow=open;endFill=0;" parent="1" source="5k6Nri1aWz12oxIihwvE-62" target="5k6Nri1aWz12oxIihwvE-57" edge="1">
          <mxGeometry relative="1" as="geometry">
            <Array as="points">
              <mxPoint x="360" y="1640" />
            </Array>
          </mxGeometry>
        </mxCell>
        <mxCell id="5k6Nri1aWz12oxIihwvE-72" style="edgeStyle=elbowEdgeStyle;rounded=0;orthogonalLoop=1;jettySize=auto;html=1;elbow=vertical;curved=0;strokeColor=#788AA3;fontColor=#46495D;fillColor=#B2C9AB;dashed=1;" parent="1" source="5k6Nri1aWz12oxIihwvE-64" target="5k6Nri1aWz12oxIihwvE-57" edge="1">
          <mxGeometry relative="1" as="geometry">
            <Array as="points">
              <mxPoint x="470" y="1760" />
            </Array>
          </mxGeometry>
        </mxCell>
        <mxCell id="5k6Nri1aWz12oxIihwvE-74" value="Exit request" style="html=1;verticalAlign=bottom;endArrow=block;edgeStyle=elbowEdgeStyle;elbow=vertical;curved=0;rounded=0;strokeColor=#788AA3;fontColor=#46495D;fillColor=#B2C9AB;" parent="1" source="5k6Nri1aWz12oxIihwvE-57" target="5k6Nri1aWz12oxIihwvE-73" edge="1">
          <mxGeometry x="0.0022" relative="1" as="geometry">
            <mxPoint x="395" y="1790" as="sourcePoint" />
            <Array as="points">
              <mxPoint x="370" y="1790" />
            </Array>
            <mxPoint as="offset" />
          </mxGeometry>
        </mxCell>
        <mxCell id="5k6Nri1aWz12oxIihwvE-75" value="return" style="html=1;verticalAlign=bottom;endArrow=open;dashed=1;endSize=8;edgeStyle=elbowEdgeStyle;elbow=vertical;curved=0;rounded=0;strokeColor=#788AA3;fontColor=#46495D;fillColor=#B2C9AB;" parent="1" source="5k6Nri1aWz12oxIihwvE-73" target="5k6Nri1aWz12oxIihwvE-57" edge="1">
          <mxGeometry relative="1" as="geometry">
            <mxPoint x="395" y="1865" as="targetPoint" />
            <Array as="points">
              <mxPoint x="360" y="1870" />
            </Array>
          </mxGeometry>
        </mxCell>
        <mxCell id="5k6Nri1aWz12oxIihwvE-78" value="售货员查看物资时序图" style="text;html=1;align=center;verticalAlign=middle;resizable=0;points=[];autosize=1;strokeColor=#82b366;fillColor=#d5e8d4;" parent="1" vertex="1">
          <mxGeometry x="447" y="1428" width="140" height="30" as="geometry" />
        </mxCell>
        <mxCell id="5k6Nri1aWz12oxIihwvE-79" value="linux" style="verticalAlign=top;align=left;spacingTop=8;spacingLeft=2;spacingRight=12;shape=cube;size=10;direction=south;fontStyle=4;html=1;whiteSpace=wrap;strokeColor=#788AA3;fontColor=#46495D;fillColor=#B2C9AB;" parent="1" vertex="1">
          <mxGeometry x="300" y="2030" width="330" height="120" as="geometry" />
        </mxCell>
        <mxCell id="5k6Nri1aWz12oxIihwvE-82" value="tcp" style="rounded=0;orthogonalLoop=1;jettySize=auto;html=1;entryX=0;entryY=0;entryDx=0;entryDy=35;entryPerimeter=0;strokeColor=#788AA3;fontColor=#46495D;fillColor=#B2C9AB;endArrow=none;endFill=0;" parent="1" source="5k6Nri1aWz12oxIihwvE-80" target="5k6Nri1aWz12oxIihwvE-81" edge="1">
          <mxGeometry relative="1" as="geometry" />
        </mxCell>
        <mxCell id="5k6Nri1aWz12oxIihwvE-80" value="goods" style="shape=module;align=left;spacingLeft=20;align=center;verticalAlign=top;whiteSpace=wrap;html=1;strokeColor=#788AA3;fontColor=#46495D;fillColor=#B2C9AB;" parent="1" vertex="1">
          <mxGeometry x="320" y="2080" width="100" height="50" as="geometry" />
        </mxCell>
        <mxCell id="5k6Nri1aWz12oxIihwvE-81" value="mysql" style="shape=module;align=left;spacingLeft=20;align=center;verticalAlign=top;whiteSpace=wrap;html=1;strokeColor=#788AA3;fontColor=#46495D;fillColor=#B2C9AB;" parent="1" vertex="1">
          <mxGeometry x="480" y="2080" width="100" height="50" as="geometry" />
        </mxCell>
        <mxCell id="5k6Nri1aWz12oxIihwvE-83" value="部署图" style="text;html=1;align=center;verticalAlign=middle;resizable=0;points=[];autosize=1;strokeColor=#82b366;fillColor=#d5e8d4;" parent="1" vertex="1">
          <mxGeometry x="447" y="1990" width="60" height="30" as="geometry" />
        </mxCell>
      </root>
    </mxGraphModel>
  </diagram>
</mxfile>
